{"title":"As.I.Lay.Dying.2013.BRRip.480p.x264.AAC-VYTO [P2PDL]","uid":9570223,"size":390630857,"categoryP":"video","categoryS":"movies","magnet":"?xt=urn:btih:aa6b9505dfa21b42b5c74362b63f4e318436790e&amp;dn=As.I.Lay.Dying.2013.BRRip.480p.x264.AAC-VYTO+%5BP2PDL%5D&amp;tr=udp%3A%2F%2Ftracker.openbittorrent.com%3A80&amp;tr=udp%3A%2F%2Fopen.demonii.com%3A1337&amp;tr=udp%3A%2F%2Ftracker.coppersurfer.tk%3A6969&amp;tr=udp%3A%2F%2Fexodus.desync.com%3A6969","seeders":0,"leechers":2,"uploader":"ValidusVyto","files":-1,"time":1391617165,"description":"As.I.Lay.Dying.2013.BRRip.480p.x264.AAC-VYTO\n\n\nGenre:  Drama  &lt;a href=&quot;\nhttp://www.imdb.com/title/tt1807944/&quot; rel=&quot;nofollow&quot; target=&quot;_NEW&quot;&gt;\nhttp://www.imdb.com/title/tt1807944/&lt;/a&gt;\n\n\nFormat                                   : MPEG-4\nFile size                                : 366 MiB\nDuration                                 : 1h 50mn\nOverall bit rate                         : 465 Kbps\n\nVideo\nFormat                                   : AVC\nBit rate                                 : 420 Kbps\nWidth                                    : 720 pixels\nHeight                                   : 304 pixels\nFrame rate mode                          : Variable\nFrame rate                               : 23.976 fps\nBit depth                                : 8 bits\nStream size                              : 330 MiB (90%)\nWriting library                          : x264 core 140 r2377\n\nAudio\nFormat                                   : AAC\nBit rate                                 : 40.0 Kbps\nChannel(s)                               : 2 channels\nChannel positions                        : Front: L R\nSampling rate                            : 48.0 KHz\nStream size                              : 31.5 MiB (9%)\nLanguage                                 : English\n\nSubtitle                                 : Yes (English)\n &lt;a href=&quot;\nhttp://ultraimg.com/images/fZO89.png&quot; rel=&quot;nofollow&quot; target=&quot;_NEW&quot;&gt;\nhttp://ultraimg.com/images/fZO89.png&lt;/a&gt; &lt;a href=&quot;\nhttp://ultraimg.com/images/qJoxw.png&quot; rel=&quot;nofollow&quot; target=&quot;_NEW&quot;&gt;\nhttp://ultraimg.com/images/qJoxw.png&lt;/a&gt; &lt;a href=&quot;\nhttp://ultraimg.com/images/sLxb.png&quot; rel=&quot;nofollow&quot; target=&quot;_NEW&quot;&gt;\nhttp://ultraimg.com/images/sLxb.png&lt;/a&gt; &lt;a href=&quot;\nhttp://ultraimg.com/images/fcgkI.png&quot; rel=&quot;nofollow&quot; target=&quot;_NEW&quot;&gt;\nhttp://ultraimg.com/images/fcgkI.png&lt;/a&gt; &lt;a href=&quot;\nhttp://ultraimg.com/images/iqOX0.png&quot; rel=&quot;nofollow&quot; target=&quot;_NEW&quot;&gt;\nhttp://ultraimg.com/images/iqOX0.png&lt;/a&gt; &lt;a href=&quot;\nhttp://ultraimg.com/images/tobZn.png&quot; rel=&quot;nofollow&quot; target=&quot;_NEW&quot;&gt;\nhttp://ultraimg.com/images/tobZn.png&lt;/a&gt;\n\n----------------------------------------------------------------------------------------------------\n\n\nEncoded using revolutionary 10bit encoding, which enables us to provide you more crispier \nand sharper images at small sizes, just make sure you follow our instructions without a fault.\nRecommend to you to use latest version of VLC player. Install K-Lite Codec Pack or shark007 codecs\nin case of any kind of problem in playback (For non-VLC Media Player users). Alternatively, install\nCore AVC codecs, the fastest decoder that there is coupled with Community Center Codec Pack and play\non Windows Media Player Classic. Check sample to be sure.\nEnjoy!\n\nEncoder Notes:Looking For Early Access To Anything You Can Provide DVDScr, R5, DVDR, BluRay, Direct\nAudio, Music Releases and Seedboxes. We require dedicated servers, so as to do more \nand fast releases of movies.\nIf You Got anything to offer please contact us at &quot;&lt;a class=&quot;__cf_email__&quot; href=&quot;/cdn-cgi/l/email-protection&quot; data-cfemail=&quot;25555742654d50564d0b464a48&quot;&gt;[email&amp;#160;protected]&lt;/a&gt;&lt;script cf-hash='f9e31' type=&quot;text/javascript&quot;&gt;\n/* &lt;![CDATA[ */!function(){try{var t=&quot;currentScript&quot;in document?document.currentScript:function(){for(var t=document.getElementsByTagName(&quot;script&quot;),e=t.length;e--;)if(t[e].getAttribute(&quot;cf-hash&quot;))return t[e]}();if(t&amp;&amp;t.previousSibling){var e,r,n,i,c=t.previousSibling,a=c.getAttribute(&quot;data-cfemail&quot;);if(a){for(e=&quot;&quot;,r=parseInt(a.substr(0,2),16),n=2;a.length-n;n+=2)i=parseInt(a.substr(n,2),16)^r,e+=String.fromCharCode(i);e=document.createTextNode(e),c.parentNode.replaceChild(e,c)}}}catch(u){}}();/* ]]&gt; */&lt;/script&gt;&quot;.","torrent":{"xt":"urn:btih:aa6b9505dfa21b42b5c74362b63f4e318436790e","amp;dn":"As.I.Lay.Dying.2013.BRRip.480p.x264.AAC-VYTO+%5BP2PDL%5D","amp;tr":["udp%3A%2F%2Ftracker.openbittorrent.com%3A80","udp%3A%2F%2Fopen.demonii.com%3A1337","udp%3A%2F%2Ftracker.coppersurfer.tk%3A6969","udp%3A%2F%2Fexodus.desync.com%3A6969"],"infoHash":"aa6b9505dfa21b42b5c74362b63f4e318436790e","infoHashBuffer":{"type":"Buffer","data":[170,107,149,5,223,162,27,66,181,199,67,98,182,63,78,49,132,54,121,14]},"announce":[],"urlList":[]}}